<svg width="130" height="125" viewBox="0 0 130 125" fill="none" xmlns="http://www.w3.org/2000/svg">
<path d="M81.2966 43.9004C72.9741 43.9004 65.3898 47.1024 59.6807 52.3561C59.5927 52.4374 59.5053 52.5186 59.4183 52.6003C59.411 52.6067 59.4043 52.6136 59.3971 52.6204C59.3078 52.7049 59.219 52.7893 59.1306 52.8742C58.9394 53.0587 58.7509 53.2449 58.5643 53.4339C58.4281 53.5718 58.2928 53.7111 58.1589 53.8517C58.1143 53.8987 58.0697 53.9457 58.0255 53.9927C57.9366 54.0868 57.8487 54.1817 57.7608 54.2771C57.6733 54.3721 57.5863 54.468 57.4997 54.5643C57.4988 54.5647 57.4984 54.5652 57.4984 54.5657C52.3105 60.3461 49.1484 68.0244 49.1484 76.4504C49.1484 83.9908 51.6806 90.9318 55.9311 96.4502C56.3833 96.2932 56.8302 96.1197 57.2702 95.9316C58.5061 95.402 59.6978 94.7469 60.8124 93.9845C61.4581 93.5431 62.0816 93.0628 62.6777 92.5479C62.0735 91.8325 61.509 91.0824 60.9905 90.305C60.1063 88.9801 59.3475 87.5645 58.7343 86.0972C57.4596 83.0458 56.8135 79.8004 56.8135 76.4504C56.8135 73.1005 57.4596 69.855 58.7343 66.8037C59.3475 65.3364 60.1063 63.9207 60.9905 62.5959C61.5577 61.7454 62.1799 60.9278 62.8495 60.1521C63.2143 59.7289 63.593 59.3185 63.9844 58.9218C64.4465 58.4539 64.9281 58.0042 65.4268 57.5737C65.4705 57.5363 65.5142 57.4988 65.558 57.4614C65.6139 57.4134 65.6702 57.366 65.727 57.3185C65.7279 57.3176 65.7293 57.3167 65.7307 57.3158C65.8055 57.2532 65.8808 57.1907 65.9565 57.129C66.0332 57.0669 66.1098 57.0049 66.1874 56.9432C66.2645 56.8821 66.3421 56.8209 66.4201 56.7606C66.4976 56.6999 66.5761 56.6401 66.6545 56.5808C66.7267 56.526 66.7992 56.4716 66.8723 56.4178C66.8858 56.4077 66.8993 56.3977 66.9129 56.3876C66.9819 56.337 67.0508 56.2863 67.1203 56.2365C67.2118 56.1703 67.3038 56.1051 67.3958 56.0411C67.4679 55.9905 67.5405 55.9403 67.6131 55.8905C67.6131 55.89 67.6131 55.89 67.6131 55.89C67.7619 55.7882 67.912 55.6883 68.0631 55.5901C68.0915 55.5709 68.1199 55.5527 68.1483 55.5344C68.3011 55.4358 68.4554 55.3386 68.6105 55.2431C69.2016 54.8797 69.8085 54.5415 70.4266 54.2306C70.6029 54.1416 70.7806 54.0553 70.9591 53.9708H70.9596C71.1377 53.8864 71.3171 53.8042 71.4975 53.7243C71.5877 53.6841 71.6783 53.6449 71.7689 53.6061C71.8334 53.5782 71.8979 53.5508 71.9628 53.5239C72.0052 53.5065 72.0471 53.4887 72.0895 53.4714C72.1242 53.4572 72.1589 53.4426 72.1936 53.4289C72.2473 53.407 72.3005 53.3856 72.3546 53.3641C72.4204 53.3381 72.4858 53.3121 72.5516 53.2869C72.6833 53.2354 72.8154 53.1856 72.9475 53.1372C73.1391 53.0664 73.3312 52.9989 73.5242 52.9336C74.2952 52.672 75.0766 52.4506 75.8679 52.2698C77.6349 51.8649 79.4493 51.6613 81.2961 51.6613C84.6047 51.6613 87.8101 52.3155 90.8238 53.6061C92.2729 54.2269 93.6711 54.9953 94.9796 55.8905C96.2777 56.778 97.4982 57.7983 98.6083 58.9218C99.7179 60.0458 100.726 61.2816 101.602 62.5959C102.486 63.9207 103.245 65.3364 103.858 66.8037C105.133 69.855 105.779 73.1005 105.779 76.4504C105.779 79.8004 105.133 83.0458 103.858 86.0972C103.245 87.5645 102.486 88.9801 101.602 90.305C100.726 91.6193 99.7179 92.8551 98.6083 93.979C97.4982 95.1026 96.2777 96.1229 94.9796 97.0104C93.6711 97.9056 92.2729 98.6739 90.8238 99.2948C87.8101 100.585 84.6047 101.24 81.2961 101.24C79.4173 101.24 77.5723 101.029 75.7759 100.61C73.7749 102.869 71.5038 104.864 69.0253 106.545C72.8064 108.128 76.9509 109 81.2961 109C99.0511 109 113.444 94.4274 113.444 76.4504C113.444 58.4735 99.0511 43.9004 81.2961 43.9004H81.2966Z" fill="#FDBD1D"/>
<path d="M74.514 56.4506C74.0627 56.6072 73.6159 56.7803 73.174 56.9697C71.9395 57.4984 70.7478 58.1535 69.6323 58.9163C68.9862 59.3582 68.3622 59.839 67.7665 60.353C68.3712 61.0684 68.9357 61.8184 69.4542 62.5959C70.3384 63.9207 71.0972 65.3364 71.7104 66.8037C72.9851 69.855 73.6312 73.1005 73.6312 76.4504C73.6312 79.8004 72.9851 83.0458 71.7104 86.0972C71.0972 87.5645 70.3384 88.9801 69.4542 90.305C68.9357 91.0824 68.3712 91.8325 67.767 92.5479C67.3495 93.0423 66.9135 93.5198 66.4603 93.979C65.3502 95.1026 64.1297 96.1229 62.8316 97.0104C61.5231 97.9056 60.1249 98.6739 58.6758 99.2948C57.3727 99.8531 56.0341 100.292 54.6665 100.61C52.8711 101.029 51.0261 101.24 49.1481 101.24C45.8395 101.24 42.6342 100.585 39.6205 99.2948C38.1713 98.6739 36.7731 97.9056 35.4647 97.0104C34.1666 96.1229 32.946 95.1026 31.8359 93.979C30.7263 92.8551 29.7186 91.6193 28.8421 90.305C27.9579 88.9801 27.199 87.5645 26.5858 86.0972C25.3112 83.0458 24.6651 79.8004 24.6651 76.4504C24.6651 73.1005 25.3112 69.855 26.5858 66.8037C27.199 65.3364 27.9579 63.9207 28.8421 62.5959C29.7186 61.2816 30.7263 60.0458 31.8359 58.9218C32.946 57.7983 34.1666 56.778 35.4647 55.8905C36.7731 54.9953 38.1713 54.2269 39.6205 53.6061C42.6342 52.3155 45.8395 51.6613 49.1481 51.6613C51.0261 51.6613 52.8711 51.8722 54.6665 52.2904C55.1012 51.8 55.5503 51.3202 56.0133 50.8514C57.6789 49.165 59.4838 47.6626 61.414 46.3533C57.6342 44.7723 53.4915 43.9004 49.1481 43.9004C31.3932 43.9004 17 58.4735 17 76.4504C17 94.4274 31.3932 109 49.1481 109C53.4915 109 57.6338 108.129 61.4136 106.548C66.6037 104.377 71.1099 100.87 74.514 96.4502C78.7641 90.9318 81.2963 83.9908 81.2963 76.4504C81.2963 68.91 78.7641 61.9691 74.514 56.4506Z" fill="#FDBD1D"/>
<path d="M81.294 39.8705L70.939 29.386C62.9777 21.3247 73.3323 10.8402 81.294 18.9015C89.2639 10.832 99.6189 21.3165 91.649 29.386L81.294 39.8705Z" fill="#FDBD1D"/>
</svg>
