<svg width="126" height="125" viewBox="0 0 126 125" fill="none" xmlns="http://www.w3.org/2000/svg">
<g clip-path="url(#clip0_2082_1741)">
<path d="M123.063 55.5616L66.1542 30.7625C63.8207 29.7458 61.1798 29.7458 58.8473 30.7625L1.93734 55.5616C-0.64578 56.6869 -0.64578 60.4121 1.93734 61.5373L27.1656 72.5308V65.7286C27.1656 63.1714 28.5154 60.7756 30.6884 59.4751C35.099 56.8352 45.0977 52.406 62.5002 52.406C79.9028 52.406 89.7693 56.8492 94.2886 59.499C96.4763 60.7815 97.8349 63.1824 97.8349 65.7654V72.5308L113.452 65.7256V83.0593C111.696 83.7812 110.457 85.5298 110.457 87.5752C110.457 89.6205 111.69 91.3602 113.438 92.0851L111.316 103.051H119.171L117.049 92.0851C118.797 91.3602 120.031 89.6146 120.031 87.5752C120.031 85.5358 118.792 83.7812 117.036 83.0593V64.1632L123.062 61.5373C125.645 60.4121 125.645 56.6869 123.062 55.5616H123.063Z" fill="#FDBD1D"/>
<path d="M61.1903 80.0028C62.0232 80.412 62.9786 80.412 63.8116 80.0028C64.5036 79.6632 65.3229 79.3236 66.2753 79.0199C65.0371 78.9731 63.7783 78.9492 62.5009 78.9492C61.2235 78.9492 59.9648 78.9741 58.7266 79.0199C59.679 79.3246 60.4982 79.6632 61.1903 80.0028Z" fill="#FDBD1D"/>
<path d="M44.0381 78.4446C52.7134 77.0346 58.1528 78.5144 61.1881 80.004C62.0211 80.4133 62.9764 80.4133 63.8094 80.004C66.8447 78.5144 72.2831 77.0346 80.9594 78.4446C86.7756 79.3896 91.3222 81.3583 94.476 84.2969V66.6217C94.476 65.2604 93.7703 63.9938 92.6113 63.3147C88.837 61.102 79.2005 56.6777 62.4988 56.6777C45.797 56.6777 36.1067 61.0502 32.3891 63.2748C31.2341 63.9659 30.5215 65.2216 30.5215 66.5848V84.2969C33.6762 81.3593 38.2229 79.3906 44.0391 78.4446H44.0381Z" fill="#FDBD1D"/>
<path d="M94.0891 90.1224C94.0891 90.1224 94.092 90.1324 94.0979 90.1523C94.0959 90.1463 94.0215 89.9283 93.8258 89.5668C93.8072 89.5329 93.7876 89.4971 93.7671 89.4602C93.7641 89.4553 93.7612 89.4503 93.7582 89.4443C93.7396 89.4104 93.7191 89.3766 93.6985 89.3407C93.6956 89.3348 93.6917 89.3298 93.6887 89.3238C93.6408 89.2422 93.587 89.1565 93.5282 89.0659C93.5243 89.0599 93.5204 89.054 93.5165 89.048C93.492 89.0101 93.4666 88.9723 93.4401 88.9335C93.4323 88.9215 93.4235 88.9086 93.4147 88.8966C93.3912 88.8618 93.3667 88.8269 93.3422 88.7921C93.3325 88.7781 93.3236 88.7652 93.3139 88.7512C93.2855 88.7114 93.2561 88.6706 93.2258 88.6298C93.2199 88.6208 93.213 88.6128 93.2072 88.6039C93.17 88.5541 93.1308 88.5023 93.0907 88.4515C93.0838 88.4425 93.076 88.4326 93.0682 88.4236C93.0359 88.3818 93.0026 88.34 92.9683 88.2972C92.9546 88.2802 92.9409 88.2633 92.9272 88.2464C92.8969 88.2095 92.8665 88.1727 92.8352 88.1348C92.8195 88.1169 92.8049 88.099 92.7892 88.0811C92.7549 88.0412 92.7197 88.0014 92.6845 87.9606C92.6708 87.9456 92.658 87.9307 92.6453 87.9158C92.5954 87.86 92.5455 87.8042 92.4926 87.7475C92.4858 87.7395 92.4779 87.7315 92.4701 87.7246C92.4251 87.6758 92.3781 87.627 92.3301 87.5782C92.3125 87.5593 92.2939 87.5414 92.2753 87.5224C92.2362 87.4826 92.197 87.4438 92.1569 87.4029C92.1363 87.382 92.1158 87.3621 92.0942 87.3412C92.0522 87.3004 92.0091 87.2595 91.966 87.2187C91.9464 87.2008 91.9278 87.1819 91.9073 87.1639C91.8437 87.1052 91.7791 87.0455 91.7125 86.9857C88.4745 84.0919 83.7507 82.8273 80.3581 82.2766C76.8794 81.711 70.3183 81.1185 65.4682 83.4985C63.582 84.4245 61.4178 84.4245 59.5307 83.4985C54.6806 81.1175 48.1195 81.711 44.6408 82.2766C41.2481 82.8283 36.5243 84.0929 33.2864 86.9857C33.2198 87.0455 33.1552 87.1052 33.0916 87.1639C33.072 87.1829 33.0524 87.2008 33.0329 87.2197C32.9898 87.2605 32.9467 87.3014 32.9056 87.3412C32.8841 87.3621 32.8625 87.383 32.842 87.4039C32.8019 87.4438 32.7637 87.4826 32.7255 87.5214C32.7069 87.5404 32.6873 87.5603 32.6687 87.5792C32.6227 87.627 32.5777 87.6748 32.5337 87.7216C32.5248 87.7305 32.516 87.7405 32.5072 87.7495C32.4553 87.8052 32.4045 87.861 32.3555 87.9158C32.3408 87.9317 32.3271 87.9476 32.3124 87.9646C32.2782 88.0034 32.2439 88.0422 32.2116 88.0811C32.195 88.1 32.1793 88.1199 32.1627 88.1388C32.1323 88.1747 32.103 88.2105 32.0736 88.2464C32.0589 88.2643 32.0442 88.2822 32.0296 88.3001C31.9963 88.341 31.964 88.3818 31.9327 88.4216C31.9238 88.4326 31.915 88.4435 31.9072 88.4545C31.8671 88.5053 31.8289 88.5561 31.7927 88.6058C31.7849 88.6158 31.778 88.6258 31.7702 88.6357C31.7408 88.6756 31.7124 88.7144 31.685 88.7522C31.6742 88.7672 31.6645 88.7811 31.6547 88.795C31.6302 88.8299 31.6067 88.8638 31.5842 88.8966C31.5754 88.9096 31.5666 88.9235 31.5578 88.9364C31.5323 88.9743 31.5078 89.0111 31.4834 89.048C31.4785 89.0549 31.4736 89.0619 31.4697 89.0699C31.4109 89.1605 31.3581 89.2451 31.3101 89.3268C31.3062 89.3328 31.3033 89.3388 31.3003 89.3447C31.2798 89.3796 31.2602 89.4134 31.2416 89.4463C31.2387 89.4523 31.2357 89.4572 31.2318 89.4622C31.2113 89.4991 31.1917 89.5339 31.1731 89.5678C30.9773 89.9293 30.9029 90.1473 30.901 90.1533C30.9078 90.1334 30.9098 90.1234 30.9098 90.1234L30.6484 90.0438C32.0824 95.2497 45.7938 99.3325 62.4994 99.3325C79.2051 99.3325 92.6639 95.3583 94.0979 90.1523L94.0891 90.1224Z" fill="#FDBD1D"/>
</g>
<defs>
<clipPath id="clip0_2082_1741">
<rect width="125" height="125" fill="white" transform="translate(0.5)"/>
</clipPath>
</defs>
</svg>
