<svg width="130" height="125" viewBox="0 0 130 125" fill="none" xmlns="http://www.w3.org/2000/svg">
<path d="M72.4681 44.3915L18.5579 56.4793C16.1084 57.0298 14.5652 59.4761 15.1091 61.9453L24.9231 106.413C25.4692 108.883 27.8961 110.438 30.3456 109.89L84.2558 97.7999C85.5724 97.5052 86.4017 96.1895 86.1094 94.8624L75.3822 46.2576C75.0899 44.9305 73.7847 44.0945 72.4681 44.3892V44.3915ZM68.1854 69.1655L61.3172 76.468L60.8776 76.934L53.1234 85.1798L47.8708 90.7646L46.4908 92.1054C46.4908 92.1054 40.2525 92.2128 38.7298 91.1735C37.6285 90.4174 36.0151 89.2342 34.7937 88.6609L34.7439 88.6381C34.225 88.3959 34.0935 87.7107 34.4878 87.2904L37.4971 84.9628C37.6806 84.7687 37.9933 84.7184 38.2562 84.7527L42.6771 85.3078L46.7922 80.6206C43.0623 78.6654 38.8453 77.2264 34.9478 75.447C34.5694 75.2734 34.3315 74.9102 34.3519 74.5036C34.3632 74.2501 34.4697 73.9943 34.6714 73.7796L37.5175 71.5365C37.8075 71.2259 38.3128 71.1413 38.723 71.2076L53.2752 73.2359L58.2377 67.5826C62.1851 63.3797 73.7031 63.2907 68.1854 69.1633V69.1655Z" fill="#FDBD1D"/>
<path d="M97.3017 38.8228L81.3536 42.3998C80.0371 42.6945 79.2077 44.0102 79.5 45.3373L90.2272 93.9421C90.5195 95.2692 91.8248 96.1052 93.1413 95.8105L109.089 92.2335C111.539 91.683 113.082 89.239 112.538 86.7675L102.724 42.2993C102.178 39.8301 99.7535 38.2746 97.3017 38.8228ZM105.888 84.5952C105.625 85.011 105.205 85.3262 104.691 85.4404L96.1075 87.3659C95.0787 87.5966 94.0568 86.9434 93.8279 85.9041C93.7123 85.3856 93.8188 84.8693 94.0817 84.4513C94.3445 84.0356 94.7638 83.7204 95.2781 83.6062L103.862 81.6806C104.89 81.4499 105.912 82.1032 106.141 83.1425C106.257 83.661 106.15 84.1772 105.888 84.5952ZM103.27 72.7404C103.007 73.1561 102.588 73.4714 102.074 73.5878L93.4903 75.5134C92.4615 75.7441 91.4395 75.0885 91.2107 74.0515C91.0951 73.533 91.2016 73.0168 91.4645 72.5988C91.7273 72.1831 92.1465 71.8679 92.6609 71.7537L101.244 69.8281C102.273 69.5974 103.295 70.2507 103.524 71.29C103.637 71.8085 103.533 72.3247 103.27 72.7404ZM100.653 60.8856C100.39 61.3013 99.971 61.6165 99.4566 61.733L90.873 63.6586C89.8443 63.8893 88.8223 63.236 88.5935 62.1967C88.4779 61.6782 88.5844 61.162 88.8472 60.7463C89.1101 60.3305 89.5293 60.0153 90.0437 59.8988L98.6273 57.9733C99.656 57.7426 100.678 58.3959 100.907 59.4351C101.022 59.9537 100.916 60.4699 100.653 60.8856ZM98.0381 49.033C97.7753 49.4488 97.3561 49.764 96.8417 49.8782L88.2581 51.8037C87.2293 52.0344 86.2074 51.3812 85.9785 50.3419C85.8652 49.8234 85.9694 49.3071 86.2323 48.8914C86.4951 48.4757 86.9144 48.1605 87.4287 48.044L96.0123 46.1185C97.0411 45.8878 98.063 46.5433 98.2919 47.5803C98.4075 48.0988 98.301 48.615 98.0381 49.033Z" fill="#FDBD1D"/>
<path d="M67.1992 27.8745C66.5511 26.6821 65.0669 26.2459 63.8841 26.8991L23.2435 49.3708C22.0221 50.0469 22.7246 51.9268 24.0842 51.6207L72.4608 40.7709C73.2449 40.595 73.6414 39.711 73.2562 39.0007L67.1992 27.8699V27.8745Z" fill="#FDBD1D"/>
<path d="M92.3599 16.3782L101.256 32.7237C101.641 33.4341 101.245 34.3181 100.461 34.4939L79.2013 39.261C78.6778 39.3775 78.1408 39.1331 77.8825 38.6603L70.8987 25.8278C70.2506 24.6355 70.6834 23.1393 71.8663 22.4861L86.1919 14.5646C88.3899 13.3494 91.1521 14.1603 92.3599 16.3782Z" fill="#FDBD1D"/>
<path d="M112.295 62.5356L112.028 62.6841C111.323 63.0724 110.446 62.6726 110.272 61.8823L106.531 44.927C106.376 44.2326 107.321 43.874 107.661 44.4975L114.094 56.3181C115.302 58.536 114.495 61.3204 112.295 62.5356Z" fill="#FDBD1D"/>
</svg>
