<svg width="126" height="125" viewBox="0 0 126 125" fill="none" xmlns="http://www.w3.org/2000/svg">
<g clip-path="url(#clip0_2082_1749)">
<path d="M39.7327 83.6952C39.3088 82.4711 38.9921 81.2836 38.4986 80.175C35.9824 74.5192 30.1454 71.0112 23.9682 71.4317C20.341 71.6786 17.1988 73.0764 14.5717 75.594C14.3283 75.8278 14.0905 75.9235 13.7531 75.9226C9.93977 75.9113 6.12554 75.916 2.31224 75.916H1.85262C1.74641 75.2579 1.63549 74.6065 1.5368 73.9531C1.26986 72.179 0.882611 70.4179 0.977544 68.6043C1.07812 66.6846 1.85074 65.1583 3.49279 64.0881C5.80502 62.5806 8.35505 61.6278 10.9793 60.8486C14.8894 59.6884 18.8832 58.8961 22.9249 58.3929C26.6884 57.9245 30.4688 57.5856 34.2416 57.1942C35.1976 57.0947 36.0097 56.7483 36.7409 56.0874C40.041 53.107 43.3148 50.0918 46.7108 47.2222C51.0466 43.5565 56.1561 41.6115 61.7534 40.806C67.0884 40.0372 72.4517 39.9481 77.8187 40.0203C81.7936 40.0738 85.7695 40.2297 89.7379 40.4578C94.3595 40.7225 98.9624 41.2238 103.531 41.9935C104.082 42.0865 104.715 42.1738 104.846 42.8271C104.974 43.4607 104.442 43.809 104.009 44.1601C103.997 44.1704 103.983 44.1798 103.968 44.1882C103.097 44.6482 102.816 45.1645 103.942 46.0253C105.971 47.577 107.983 49.1588 109.696 51.0578C110.997 52.4997 112.299 53.9678 113.379 55.573C116.009 59.4818 118.337 63.5662 119.865 68.0552C120.726 70.5897 120.819 73.2059 120.686 75.9151C120.295 75.9151 119.909 75.9151 119.521 75.9151C118.457 75.9151 117.393 75.9291 116.33 75.9029C116.115 75.8972 115.855 75.7911 115.699 75.6428C112.515 72.6258 108.728 71.2027 104.354 71.4308C97.8307 71.7706 92.1742 76.5853 90.7418 82.9573C90.6315 83.4492 90.3225 83.6955 89.815 83.6961C73.3164 83.6961 56.8169 83.6961 40.3183 83.6961H39.7318L39.7327 83.6952ZM89.5734 62.6087V62.6059C95.0711 62.6059 100.569 62.6078 106.067 62.604C107.075 62.604 108.059 62.4463 108.97 61.9948C110.17 61.4006 110.793 60.444 110.706 59.0791C110.619 57.7349 109.997 56.6075 109.203 55.5749C106.821 52.4753 104.101 49.706 100.999 47.317C98.8891 45.6921 96.5533 44.5468 93.9018 44.192C91.911 43.9254 89.9033 43.7273 87.8966 43.6429C83.1904 43.4457 78.4813 43.2927 73.7713 43.2073C71.2739 43.1622 69.833 44.7045 69.8321 47.2015C69.8302 51.2042 69.8293 55.2079 69.8349 59.2106C69.8349 59.6011 69.8669 59.9944 69.9195 60.3811C70.0859 61.5958 70.7579 62.2942 71.9591 62.4961C72.3445 62.5608 72.7383 62.604 73.1293 62.604C78.611 62.6106 84.0927 62.6087 89.5734 62.6087ZM53.4529 62.5993C53.4529 62.6078 53.4529 62.6172 53.4529 62.6256C56.3488 62.6256 59.2447 62.6331 62.1397 62.62C62.8409 62.6172 63.5477 62.5871 64.2414 62.4914C65.3251 62.3412 66.0319 61.7226 66.2227 60.6186C66.3111 60.107 66.359 59.5814 66.3609 59.0622C66.3722 55.3055 66.3694 51.5478 66.3647 47.7901C66.3647 47.317 66.3515 46.842 66.3111 46.3717C66.1504 44.5206 64.9933 43.5818 63.1558 43.8024C58.192 44.3995 53.6484 46.0892 49.5757 49.0067C45.9823 51.5816 42.8514 54.6643 39.8023 57.8382C39.4987 58.1545 39.2374 58.5178 38.9977 58.8867C37.9375 60.5173 38.3144 61.6325 40.2027 62.0821C41.449 62.3797 42.7499 62.5486 44.0301 62.5768C47.1694 62.6453 50.3116 62.5993 53.4529 62.5993ZM65.0591 79.1949H84.9443C86.6136 79.1949 86.6672 79.1414 86.6568 77.4977C86.6521 76.6332 86.373 76.345 85.512 76.345C71.8952 76.3431 58.2785 76.3431 44.6626 76.345C43.8421 76.345 43.5329 76.6595 43.5235 77.4686C43.5216 77.616 43.5235 77.7625 43.5235 77.9098C43.5244 78.9631 43.7603 79.1949 44.8318 79.1949C51.5749 79.1949 58.317 79.1949 65.0601 79.1949H65.0591ZM10.8506 71.9687C10.8506 71.9537 10.8515 71.9396 10.8524 71.9246C11.5564 71.9246 12.2699 71.9959 12.9607 71.902C13.5049 71.8279 14.1149 71.6692 14.5332 71.3416C15.5079 70.5775 16.2288 69.5693 16.6509 68.3922C17.0879 67.1746 16.5794 66.2988 15.3096 66.0163C14.2437 65.7788 13.1919 65.9168 12.1599 66.2125C10.0591 66.8123 8.24508 67.8608 6.95738 69.6735C6.29754 70.6019 6.56072 71.3444 7.63788 71.7209C7.77605 71.7687 7.91986 71.8241 8.06273 71.8326C8.99138 71.8851 9.92097 71.9264 10.8506 71.9715V71.9687ZM60.5014 70.647C61.3191 70.647 62.1369 70.6554 62.9537 70.6441C63.4171 70.6376 63.6332 70.4095 63.6539 69.9467C63.6614 69.7674 63.6567 69.5872 63.6558 69.4079C63.6502 68.731 63.4659 68.5471 62.7741 68.5452C61.4009 68.5424 60.0277 68.5442 58.6535 68.5442C57.3743 68.5442 57.2934 68.6278 57.3395 69.9063C57.3583 70.4245 57.5698 70.6404 58.098 70.6451C58.8988 70.6526 59.7006 70.647 60.5014 70.647Z" fill="#FDBD1D"/>
<path d="M37.2851 86.2886H92.9364C92.9928 85.7085 93.0342 85.1274 93.1066 84.5492C93.7551 79.3355 98.153 74.8748 103.359 74.1632C107.81 73.5549 111.542 74.9348 114.581 78.2316C114.722 78.3846 114.993 78.4926 115.204 78.4945C117.611 78.5123 120.016 78.5048 122.422 78.5067C124.111 78.5076 124.995 79.39 124.996 81.075C124.997 82.0062 125.005 82.9383 124.995 83.8696C124.972 85.7536 123.613 87.1044 121.728 87.1166C120.534 87.1241 119.339 87.1185 118.144 87.1185C117.967 87.1185 117.79 87.1185 117.651 87.1185C117.433 88.1088 117.293 89.0654 117.009 89.9759C115.512 94.7859 111.226 98.1681 106.194 98.5567C101.235 98.9397 96.4959 96.2475 94.2692 91.7557C94.07 91.353 93.8594 91.1981 93.3951 91.1991C74.5241 91.2132 55.6522 91.2122 36.7813 91.1991C36.3367 91.1991 36.1327 91.3371 35.941 91.7294C33.5977 96.5047 28.4883 99.1866 23.1551 98.4638C17.9752 97.7617 13.7295 93.6538 12.798 88.4421C12.7576 88.2168 12.6834 87.9858 12.705 87.7643C12.7633 87.1523 12.4352 87.1044 11.938 87.1081C9.10694 87.1278 6.27493 87.1194 3.44387 87.1166C1.32903 87.1147 0.00560417 85.8005 0.00278438 83.7025C0.000904521 82.7544 -0.0028552 81.8062 0.00372431 80.8591C0.0131236 79.4435 0.950233 78.5113 2.39396 78.5085C6.51838 78.501 10.6428 78.4973 14.7672 78.5179C15.2221 78.5198 15.5069 78.3715 15.8124 78.0523C19.2723 74.4401 23.4822 73.1503 28.2853 74.5087C33.0112 75.8454 35.8855 79.1084 36.9824 83.893C37.1591 84.6646 37.1864 85.4701 37.286 86.2886H37.2851ZM31.7423 86.3037C31.747 82.5309 28.6951 79.4688 24.9269 79.4651C21.1691 79.4613 18.0851 82.5328 18.0786 86.2868C18.071 90.0473 21.1324 93.1047 24.91 93.1103C28.696 93.1159 31.7386 90.0848 31.7423 86.3037ZM112.103 86.3074C112.111 82.5375 109.056 79.4688 105.292 79.4641C101.528 79.4595 98.4604 82.5131 98.4435 86.2811C98.4266 90.0369 101.489 93.1019 105.265 93.1094C109.052 93.1159 112.096 90.0876 112.103 86.3074Z" fill="#FDBD1D"/>
<path d="M22.0752 86.3185C22.0639 84.7358 23.2952 83.478 24.8752 83.4573C26.4721 83.4357 27.7683 84.6955 27.7787 86.2782C27.788 87.8524 26.4919 89.1544 24.9156 89.1534C23.3497 89.1534 22.0855 87.8909 22.0742 86.3195L22.0752 86.3185Z" fill="#FDBD1D"/>
<path d="M105.263 83.4551C106.845 83.4485 108.115 84.6914 108.128 86.2562C108.14 87.8492 106.875 89.1419 105.295 89.1522C103.713 89.1625 102.432 87.8802 102.434 86.2891C102.435 84.7111 103.683 83.4626 105.263 83.456V83.4551Z" fill="#FDBD1D"/>
</g>
<defs>
<clipPath id="clip0_2082_1749">
<rect width="125" height="125" fill="white" transform="translate(0.5)"/>
</clipPath>
</defs>
</svg>
