<svg width="126" height="125" viewBox="0 0 126 125" fill="none" xmlns="http://www.w3.org/2000/svg">
<g clip-path="url(#clip0_2082_1718)">
<path d="M62.9788 14C47.9904 14 33.118 36.5283 33.118 57.6051C33.118 64.2035 34.582 69.8771 37.0456 74.5594C42.7564 78.4164 52.8593 80.3574 62.9788 80.3574C73.0983 80.3574 83.2096 78.4206 88.9121 74.5594C91.3798 69.8771 92.8397 64.2035 92.8397 57.6051C92.8397 36.5283 77.9756 14 62.9788 14ZM73.8988 98.8752C77.0093 100.484 86.0546 102.836 103.254 90.6469C104.772 87.2917 105.937 83.8121 106.236 81.1537C101.097 88.0092 88.0329 92.7704 81.8492 94.0477C81.0115 94.2385 80.0866 93.6994 79.8917 92.7621C79.7051 91.8662 80.2815 90.987 81.1732 90.8004C89.9656 88.9838 103.237 82.7338 104.896 76.6745C105.273 75.3018 104.966 73.9622 104.058 72.6267C102.217 70.4121 99.2183 68.7905 94.9548 67.7785C94.2373 70.719 93.2129 73.506 91.8443 76.1064C91.5913 76.5875 91.2222 77.0022 90.7701 77.3091C84.8809 81.2988 74.4836 83.6752 62.9747 83.6752C51.4658 83.6752 41.0768 81.2988 35.1793 77.3091C34.7313 77.0063 34.3622 76.5916 34.1051 76.1064C32.7365 73.5143 31.7204 70.7314 31.0029 67.791C26.8473 68.7905 23.8943 70.3664 22.0488 72.5148C20.817 74.1571 20.5143 76.1561 21.2981 78.2422C22.1649 80.544 26.4947 87.9055 46.5305 91.0368C46.5637 92.0736 46.7047 93.2266 46.9701 94.4459C30.1859 91.9782 23.04 86.5742 20 82.5762C20.4355 84.878 21.4059 87.6567 22.675 90.4313C25.7482 94.5662 36.7511 99.7462 49.4917 100.812C50.2299 102.031 51.1133 103.197 52.1626 104.258C43.3619 103.914 34.918 101.637 28.6928 98.6388C38.3229 107.916 52.5068 110.629 65.9815 110.131C59.4578 106.199 54.2197 98.2448 53.8049 91.887C54.8915 91.9533 56.0072 92.0072 57.1353 92.0487C57.8362 98.7218 65.094 108.393 73.6292 109.418C85.2335 107.634 93.2337 103.006 98.2685 97.7389C91.4918 101.538 85.2293 103.516 79.9415 103.516C77.1171 103.516 74.5748 102.96 72.3809 101.82C68.5778 99.8499 66.2635 96.3454 65.8571 92.0778C66.9976 92.0363 68.1464 91.9948 69.2455 91.9077C69.6021 94.9519 71.203 97.4734 73.9029 98.8752H73.8988ZM64.9364 62.3123V67.0859H61.1665V62.5778C57.8984 62.5155 54.6717 61.7566 53.0252 61.0432L54.1201 57.6175C55.4473 58.2065 58.1845 59.2433 61.4568 59.2433C65.4797 59.2433 67.6446 57.1489 67.6446 55.1955C67.6446 52.844 65.2848 51.4214 60.7227 49.7542C56.227 47.9584 53.2202 46.0216 53.2202 42.401C53.2202 37.3578 57.4961 35.3629 61.1706 35.0229V30.5852H64.9364V34.7657C67.2382 34.8404 69.2704 35.0768 71.5597 36.0058L70.4897 39.3153C68.9883 38.7306 66.8234 38.0214 64.277 38.0214C60.8927 38.0214 58.3919 39.8835 58.3919 41.7291C58.3919 44.0433 61.6061 45.2543 65.1396 46.7142C70.8298 48.8542 72.9366 50.9984 72.9366 54.6315C72.9366 60.0645 69.0879 62.5155 64.9405 62.3123H64.9364Z" fill="#FDBD1D"/>
</g>
<defs>
<clipPath id="clip0_2082_1718">
<rect width="125" height="125" fill="white" transform="translate(0.5)"/>
</clipPath>
</defs>
</svg>
