<svg width="35" height="35" viewBox="0 0 35 35" fill="none" xmlns="http://www.w3.org/2000/svg">
<path d="M5.14706 35H29.8529C32.691 35 35 32.691 35 29.8529V7.20588C35 4.36785 32.691 2.05882 29.8529 2.05882H28.8235V5.14706C28.8235 5.71602 28.3631 6.17647 27.7941 6.17647C27.2252 6.17647 26.7647 5.71602 26.7647 5.14706V1.02941C26.7647 0.46045 26.3043 0 25.7353 0C25.1663 0 24.7059 0.46045 24.7059 1.02941V2.05882H12.3529V5.14706C12.3529 5.71602 11.8925 6.17647 11.3235 6.17647C10.7546 6.17647 10.2941 5.71602 10.2941 5.14706V1.02941C10.2941 0.46045 9.83367 0 9.26471 0C8.69574 0 8.23529 0.46045 8.23529 1.02941V2.05882H5.14706C2.30903 2.05882 0 4.36785 0 7.20588V29.8529C0 32.691 2.30903 35 5.14706 35ZM22.6471 22.6471H18.5294V26.7647C18.5294 27.3337 18.069 27.7941 17.5 27.7941C16.931 27.7941 16.4706 27.3337 16.4706 26.7647V22.6471H12.3529C11.784 22.6471 11.3235 22.1866 11.3235 21.6176C11.3235 21.0487 11.784 20.5882 12.3529 20.5882H16.4706V16.4706C16.4706 15.9016 16.931 15.4412 17.5 15.4412C18.069 15.4412 18.5294 15.9016 18.5294 16.4706V20.5882H22.6471C23.216 20.5882 23.6765 21.0487 23.6765 21.6176C23.6765 22.1866 23.216 22.6471 22.6471 22.6471ZM3.08824 8.23529H31.9118C32.4807 8.23529 32.9412 8.69574 32.9412 9.26471C32.9412 9.83367 32.4807 10.2941 31.9118 10.2941H3.08824C2.51927 10.2941 2.05882 9.83367 2.05882 9.26471C2.05882 8.69574 2.51927 8.23529 3.08824 8.23529Z" fill="#FDBD1D"/>
</svg>
